<?xml version="1.0"?>
<svg xmlns="http://www.w3.org/2000/svg" xmlns:xlink="http://www.w3.org/1999/xlink" version="1.1" id="Capa_1" x="0px" y="0px" viewBox="0 0 512.001 512.001" style="enable-background:new 0 0 512.001 512.001;" xml:space="preserve" width="512px" height="512px" class=""><g transform="matrix(1 0 0 1 0 0)"><g>
	<g>
		<path d="M179.119,258.752c-4.141,0-7.499,3.357-7.499,7.499v13.914c0,4.141,3.357,7.499,7.499,7.499s7.499-3.357,7.499-7.499    v-13.914C186.617,262.108,183.26,258.752,179.119,258.752z" data-original="#000000" class="active-path" data-old_color="#000000" fill="#FFFFFF"/>
	</g>
</g><g>
	<g>
		<path d="M332.877,258.752c-4.141,0-7.499,3.356-7.499,7.499v13.914c0,4.141,3.357,7.499,7.499,7.499s7.499-3.357,7.499-7.499    v-13.914C340.376,262.108,337.018,258.752,332.877,258.752z" data-original="#000000" class="active-path" data-old_color="#000000" fill="#FFFFFF"/>
	</g>
</g><g>
	<g>
		<path d="M279.908,273.551c-3.118-2.727-7.856-2.409-10.581,0.71c-3.239,3.706-8.098,5.832-13.329,5.832    c-5.231,0-10.089-2.126-13.329-5.832c-2.726-3.118-7.463-3.436-10.581-0.711c-3.118,2.726-3.436,7.463-0.711,10.581    c6.088,6.965,15.061,10.959,24.621,10.959s18.534-3.994,24.621-10.958C283.344,281.014,283.026,276.277,279.908,273.551z" data-original="#000000" class="active-path" data-old_color="#000000" fill="#FFFFFF"/>
	</g>
</g><g>
	<g>
		<path d="M496.504,378.948c-5.219-6.252-11.359-13.621-14.278-19.855c14.972-4.061,26.021-17.763,26.021-34.003    c0-16.686-11.665-30.691-27.265-34.313c1.79-37.569-8.755-87.361-32.996-125.044c-0.267-0.531-0.586-1.02-0.955-1.458    c-4.26-6.472-8.917-12.584-14.007-18.182c-22.92-25.207-51.469-38.21-84.873-38.685c-6.668-3.417-13.958-6.452-21.961-9.023    c-3.94-1.267-8.166,0.902-9.433,4.845c-1.268,3.942,0.902,8.166,4.845,9.433c18.088,5.812,35.115,15.467,48.064,29.52    c30.247,32.908,32.925,81.564,32.991,122.167c0,0.122,0,0.244,0,0.366c0.042,21.016,0.202,43.953-14.426,60.762    c-10.784,12.393-25.838,20.441-41.008,26.172c-30.849,11.655-65.536,14.216-84.236,14.674c-0.023,0.001-0.045,0.001-0.068,0.002    c-4.613,0.11-9.23,0.113-13.844,0c-0.021,0-0.041,0-0.062-0.001c-18.696-0.458-53.376-3.018-84.225-14.669    c-19.445-7.344-39.207-18.86-49.077-37.935c-5.861-11.327-6.266-24.22-6.332-36.701c-0.218-40.898-0.445-84.936,22.189-120.777    c26.466-41.908,78.189-52.506,124.43-52.506c13.387,0,26.008,0.855,37.512,2.543c4.099,0.601,7.907-2.234,8.508-6.332    c0.601-4.097-2.234-7.907-6.332-8.508C283.465,89.649,270.112,88.74,256,88.74c-36.955,0-67.731,6.266-91.984,18.667    c-33.475,0.434-62.082,13.438-85.04,38.687c-5.542,6.095-10.507,12.719-14.962,19.641    c-24.241,37.683-34.786,87.475-32.995,125.044c-15.6,3.622-27.265,17.627-27.265,34.313c0,16.24,11.048,29.943,26.021,34.003    c-2.919,6.234-9.058,13.602-14.278,19.855C5.468,390.963-3.192,401.338,1.148,411.467c3.827,8.941,15.381,10.814,25.019,11.448    c3.475,0.229,7.156,0.345,10.951,0.345c31.869,0,73.881-8.075,102.3-25.377c8.075,3.016,20.152,6.865,36.207,10.213    c4.049,0.845,8.027-1.755,8.872-5.81c0.846-4.054-1.755-8.026-5.809-8.871c-9.856-2.057-18.086-4.296-24.705-6.384    c0.378-0.352,0.731-0.71,1.097-1.065c5.127-4.973,9.595-10.87,12.426-17.461c29.751,9.73,61.093,12.228,79.609,12.769    c0.085,0.002,0.17,0.005,0.254,0.007c5.755,0.168,11.493,0,17.246,0c0.099-0.003,0.199-0.006,0.299-0.009    c18.52-0.542,49.846-3.042,79.581-12.769c2.841,6.601,7.243,12.427,12.376,17.413c0.386,0.375,0.76,0.754,1.161,1.126    C337.793,393.46,304.13,400.795,256,400.795c-16.575,0-32.719-0.901-47.981-2.678c-4.116-0.477-7.837,2.468-8.316,6.582    s2.468,7.837,6.582,8.316c15.836,1.844,32.564,2.779,49.716,2.779c58.692,0,97.161-10.64,116.585-17.91    c28.422,17.301,70.436,25.375,102.304,25.375c3.782,0,7.464-0.116,10.942-0.345c9.637-0.634,21.19-2.508,25.021-11.448    C515.192,401.336,506.533,390.961,496.504,378.948z M90.071,156.184c13.437-14.778,29.074-24.755,46.708-29.842    c-10.688,10.032-19.238,22.089-25.778,36.277c-1.92,4.164-3.633,8.422-5.149,12.749l-23.615-9.651    C84.748,162.362,87.355,159.171,90.071,156.184z M53.687,226.473c4.873-17.823,11.665-34.051,20.031-48.038l27.828,11.374    c-0.245,0.979-0.482,1.959-0.711,2.939c-0.01,0.042-0.02,0.084-0.03,0.126c-4.258,18.315-5.755,37.173-6.244,54.923l-46.425,5.106    C49.451,244.093,51.305,235.18,53.687,226.473z M46.397,268.184l47.95-5.274c-0.028,8.969-0.203,17.986,0.121,26.949H45.976    C45.664,282.997,45.817,275.698,46.397,268.184z M18.749,325.092c0-11.158,9.078-20.236,20.237-20.236h57.498    c3.746,15.709,12.541,29.247,26.274,40.472H38.985C27.826,345.328,18.749,336.25,18.749,325.092z M111.931,394.586    c-22.096,8.564-50.063,13.676-74.823,13.676c-6.569,0-16.159,0.821-22.022-2.777c0.638-3.406,7.65-11.805,11.922-16.924    c7.629-9.138,15.463-18.525,18.334-28.235h101.516c0.546,0.261,6.51,3.019,6.548,2.938    C145.995,379.264,124.809,389.594,111.931,394.586z M466.018,289.859h-48.492c-0.165,0.003,0.55-26.901,0.121-26.95    c0.001,0,47.95,5.274,47.95,5.274C466.178,275.698,466.331,282.997,466.018,289.859z M438.279,178.435    c8.365,13.987,15.156,30.215,20.031,48.039c2.381,8.707,4.234,17.62,5.55,26.431l-46.429-5.106    c-0.077-2.772-0.18-5.572-0.313-8.395c-0.001-0.027-0.003-0.055-0.004-0.082c-0.743-16.642-2.615-33.33-6.653-49.517    L438.279,178.435z M375.259,126.354c17.617,5.091,33.24,15.065,46.666,29.829c2.716,2.987,5.323,6.179,7.834,9.532l-23.591,9.642    C399.881,157.308,390.182,140.385,375.259,126.354z M415.513,304.856h57.497c11.158,0,20.237,9.078,20.237,20.236    c0,11.158-9.078,20.237-20.237,20.237h-83.771C402.971,334.103,411.766,320.567,415.513,304.856z M474.887,408.263    c-24.753,0-52.724-5.113-74.822-13.678c-12.879-4.992-34.064-15.321-41.474-31.321c0.402-0.169,4.779-2.093,6.548-2.938h101.516    c2.871,9.71,10.706,19.097,18.334,28.235c4.272,5.118,11.282,13.516,11.922,16.925    C497.318,407.702,477.129,408.263,474.887,408.263z" data-original="#000000" class="active-path" data-old_color="#000000" fill="#FFFFFF"/>
	</g>
</g></g> </svg>
